<svg xmlns="http://www.w3.org/2000/svg" width="125" height="20" viewBox="0 0 125 20">
    <g fill="#508DFA" fill-rule="evenodd">
        <path fill-rule="nonzero" d="M28.327 17.813V6.278h4.425V3.187H20v3.091h4.425v11.535h3.902zm10.012 0v-5.477h1.174c.7 0 1.21.27 1.532.81l2.558 4.667h4.237l-2.349-4.15c-.503-.912-1.182-1.458-2.034-1.638 1.118-.263 1.985-.778 2.6-1.546.616-.767.923-1.704.923-2.811 0-1.452-.45-2.562-1.353-3.33-.902-.767-2.247-1.151-4.037-1.151h-7.047v14.626h3.796zm2.643-8.34h-2.685V6.071h2.685c.853 0 1.464.134 1.835.404.37.27.556.709.556 1.318 0 .594-.186 1.023-.556 1.286-.37.263-.982.394-1.835.394zM56.028 18c2.125 0 3.75-.543 4.876-1.629 1.126-1.085 1.689-2.659 1.689-4.72V3.187h-3.797v8.61c0 1.05-.237 1.86-.713 2.427-.475.567-1.16.85-2.055.85-.895 0-1.58-.283-2.056-.85-.475-.567-.713-1.376-.713-2.427v-8.61h-3.775v8.464c0 2.075.556 3.652 1.667 4.73C52.263 17.462 53.888 18 56.028 18zm19.87-.187v-2.946h-6.754v-3.029h6.334V8.913h-6.334v-2.78h6.754V3.187H65.39v14.626h10.508zm5.796 0v-8.36l6.754 8.36H91.3V3.187h-3.607v8.36l-6.775-8.36h-2.81v14.626h3.586zm18.507 0c1.65 0 3.066-.29 4.247-.871 1.182-.581 2.084-1.421 2.706-2.52.622-1.1.933-2.41.933-3.932 0-1.508-.314-2.812-.944-3.911-.629-1.1-1.534-1.94-2.716-2.52-1.181-.582-2.59-.872-4.226-.872h-6.02v14.626h6.02zm-.273-3.07h-1.887V6.257h1.887c1.455 0 2.538.35 3.251 1.048.714.698 1.07 1.76 1.07 3.185 0 1.424-.356 2.49-1.07 3.195-.713.705-1.796 1.058-3.25 1.058zM117.618 18c1.495 0 2.8-.308 3.91-.923 1.112-.616 1.969-1.487 2.57-2.614.601-1.128.902-2.452.902-3.973 0-1.522-.297-2.846-.891-3.973-.595-1.128-1.448-1.996-2.56-2.604-1.11-.609-2.422-.913-3.932-.913-1.51 0-2.82.304-3.932.913-1.112.608-1.968 1.476-2.57 2.604-.6 1.127-.902 2.451-.902 3.973 0 1.521.301 2.845.902 3.973.602 1.127 1.458 1.998 2.57 2.614 1.111.615 2.422.923 3.932.923zm0-2.925c-1.12 0-1.993-.388-2.622-1.162-.63-.775-.944-1.916-.944-3.423 0-1.508.314-2.646.944-3.413.629-.768 1.503-1.152 2.621-1.152 1.105 0 1.975.388 2.611 1.162.637.775.955 1.909.955 3.403 0 1.493-.315 2.631-.944 3.412-.63.782-1.503 1.173-2.622 1.173z"/>
        <path d="M0 0L0 5 5 5 5 10 10 10 10 5 15 5 15 0zM5 10L0 10 0 20 15 20 15 10 10 10 10 15 5 15z"/>
    </g>
</svg>
